<svg height="560" preserveAspectRatio="none" viewBox="0 0 100 100" width="997" xmlns="http://www.w3.org/2000/svg"><path d="M 26.488572038470632,13.19129030295926 L 26.71153748050685,12.68827364708535 L 27.023689099357544,12.66179908624988 L 27.083146550567207,13.032442937946445 L 29.20875043131246,11.311596483640965 L 33.9207534396778,12.582375403743477 L 34.262633784133335,12.555900842908004 L 34.218040695726096,11.099799996957211 L 38.46699786123486,8.148569162246606 L 42.66758774953568,11.47551370864089 L 42.707333544508856,13.032899960651163 L 43.25052607580896,13.009303199257069 L 43.237277477484575,12.60815825555745 L 43.383012059052895,12.537367971375168 L 45.52709733256954,12.881774779206376 L 45.52709733256954,13.305727651167034 L 47.268130460087974,13.354179407962539 L 48.04343427468603,13.499534678349049 L 53.61624678920902,13.192272491244102 L 53.61624678920902,12.951351924288252 L 53.83759256009972,12.951351924288252 L 57.42118877615589,11.13699033059815 L 58.81611929820076,11.483661591200407 L 58.81611929820076,11.03587787958916 L 62.70753846092687,7.870337436841271 L 66.38815298230895,11.367976065161224 L 66.41167128595994,11.828742830568645 L 67.23649201957649,11.472895919445548 L 68.91436661376278,12.268992019366664 L 68.94187275465107,12.599678091641586 L 69.66579423277967,12.870180511155638 L 70.95060353699047,12.75880097963655 L 72.54808767187207,12.860055099199357 L 73.59092314191427,12.25193448375656 L 74.43895535708927,13.711574285994116 L 74.3277169654948,23.658374758499853 L 74.42509714630448,23.69691731614871 L 74.42509714630448,24.54485358442364 L 74.30607692531484,24.55448922383586 L 73.8723692153338,57.723666463117 L 72.14288072148331,60.96334550476136 L 71.74032736515602,61.043009743490316 L 71.57854821577898,65.27469814707004 L 70.48599503688553,65.63505376162983 L 69.1776288843835,65.32274556234469 L 68.4762367201556,66.59600206712261 L 65.23210865510862,67.35845691183634 L 63.29945388392784,66.73773139148386 L 62.79252804230665,67.52774569011429 L 57.72326962609482,66.96344976252114 L 54.07666619029597,64.86636319082592 L 54.07666619029597,64.0662048881513 L 48.73694311711393,62.328718288057814 L 48.10120978822368,62.97421376683783 L 46.48352382594037,63.28292294917085 L 44.51174568306672,65.04633847851775 L 43.496489703119025,64.73251029109161 L 42.149023912149815,65.93807135688013 L 38.46862158520574,66.74452502660787 L 36.90512737608627,66.06824022690395 L 35.92235958749689,66.84397867362318 L 31.27319596995729,66.35692169901164 L 28.92604931520123,64.36519053348803 L 28.911365715261866,63.24104546329154 L 28.551648135443443,63.03719134485844 L 28.32273694828626,57.8243503163546 L 28.159228957459696,57.7952282994356 L 28.142878158377044,56.5138595549989 L 28.224632153790317,56.48473753807988 L 26.974135103455428,24.828790376016848 L 26.823105288256592,24.76901357841187 L 26.70563765421306,23.767752218528454 L 26.873448559989537,23.752808019127215 Z" fill="white" fill-opacity="0.32" vector-effect="non-scaling-stroke"></path></svg>